<?xml version="1.0" encoding="UTF-8" standalone="no"?>
<!-- Created with Inkscape (http://www.inkscape.org/) -->

<svg
   xmlns:dc="http://purl.org/dc/elements/1.1/"
   xmlns:cc="http://creativecommons.org/ns#"
   xmlns:rdf="http://www.w3.org/1999/02/22-rdf-syntax-ns#"
   xmlns:svg="http://www.w3.org/2000/svg"
   xmlns="http://www.w3.org/2000/svg"
   xmlns:xlink="http://www.w3.org/1999/xlink"
   xmlns:sodipodi="http://sodipodi.sourceforge.net/DTD/sodipodi-0.dtd"
   xmlns:inkscape="http://www.inkscape.org/namespaces/inkscape"
   width="45.8125"
   height="45.8125"
   id="svg2"
   version="1.1"
   inkscape:version="0.91 r13725"
   sodipodi:docname="fontfinder.svg"
   inkscape:export-filename="/home/ja/dev/fontfinder/src/fontfinder.svg.png"
   inkscape:export-xdpi="600"
   inkscape:export-ydpi="600">
  <defs
     id="defs4">
    <linearGradient
       id="2">
      <stop
         stop-color="#eeeeec"
         id="G" />
      <stop
         stop-color="#d3d7cf"
         offset="1"
         id="H" />
    </linearGradient>
    <linearGradient
       id="3">
      <stop
         stop-color="#2e3436"
         id="I" />
      <stop
         stop-opacity="0"
         stop-color="#2e3436"
         offset="1"
         id="J" />
    </linearGradient>
    <linearGradient
       id="4">
      <stop
         stop-opacity="0.8"
         stop-color="#fff"
         id="K" />
      <stop
         stop-opacity="0"
         stop-color="#fff"
         offset="1"
         id="L" />
    </linearGradient>
    <radialGradient
       gradientTransform="matrix(1,0,0,0.1455399,0,39.255173)"
       gradientUnits="userSpaceOnUse"
       xlink:href="#3"
       id="5"
       r="23.08"
       cy="45.941002"
       cx="24.377001" />
    <radialGradient
       gradientUnits="userSpaceOnUse"
       xlink:href="#2"
       id="6"
       r="19.906"
       cy="8.5419998"
       cx="12.14" />
    <linearGradient
       gradientTransform="translate(1.179199e-8,-1.4999995)"
       gradientUnits="userSpaceOnUse"
       xlink:href="#4"
       id="7"
       y2="43.780998"
       x2="0"
       y1="4.2189999" />
  </defs>
  <sodipodi:namedview
     id="base"
     pagecolor="#ffffff"
     bordercolor="#666666"
     borderopacity="1.0"
     inkscape:pageopacity="0.0"
     inkscape:pageshadow="2"
     inkscape:zoom="11.2"
     inkscape:cx="17.017522"
     inkscape:cy="28.324946"
     inkscape:document-units="mm"
     inkscape:current-layer="1"
     showgrid="false"
     inkscape:window-width="1098"
     inkscape:window-height="873"
     inkscape:window-x="667"
     inkscape:window-y="75"
     inkscape:window-maximized="0"
     units="mm"
     fit-margin-top="3"
     fit-margin-left="3"
     fit-margin-right="3"
     fit-margin-bottom="3" />
  <metadata
     id="metadata7">
    <rdf:RDF>
      <cc:Work
         rdf:about="">
        <dc:format>image/svg+xml</dc:format>
        <dc:type
           rdf:resource="http://purl.org/dc/dcmitype/StillImage" />
        <dc:title />
      </cc:Work>
    </rdf:RDF>
  </metadata>
  <g
     inkscape:label="Layer 1"
     inkscape:groupmode="layer"
     id="layer1"
     transform="translate(-268.52232,-622.44165)">
    <g
       id="1"
       transform="translate(267.42857,622.8479)">
      <path
         id="A"
         transform="translate(1.179199e-8,-1.4999995)"
         d="M 9,4.09375 C 6.2608771,4.09375 4.09375,6.2608771 4.09375,9 l 0,30 c 0,2.739123 2.1671271,4.90625 4.90625,4.90625 l 30,0 c 2.739123,0 4.90625,-2.167127 4.90625,-4.90625 l 0,-30 C 43.90625,6.2608771 41.739123,4.09375 39,4.09375 l -30,0 z"
         inkscape:connector-curvature="0"
         style="fill:url(#6)" />
      <path
         id="B"
         d="m 9,2.7187505 c -2.6655117,0 -4.78125,2.1157383 -4.78125,4.78125 l 0,29.9999995 c 0,2.665513 2.1157384,4.78125 4.78125,4.78125 l 30,0 c 2.665512,0 4.78125,-2.115737 4.78125,-4.78125 l 0,-29.9999995 c 0,-2.6655116 -2.115738,-4.78125 -4.78125,-4.78125 l -30,0 z m 0,1 30,0 c 2.145718,0 3.78125,1.635532 3.78125,3.78125 l 0,29.9999995 c 0,2.145719 -1.635532,3.78125 -3.78125,3.78125 l -30,0 c -2.145718,0 -3.78125,-1.635531 -3.78125,-3.78125 l 0,-29.9999995 c 0,-2.1457179 1.6355321,-3.78125 3.78125,-3.78125 z"
         inkscape:connector-curvature="0"
         style="opacity:0.8;fill:url(#7)" />
      <a
         id="D"
         transform="matrix(0.18642165,0,0,0.18642165,20.913256,7.5810738)"
         style="fill:#555753">
        <path
           id="N"
           d="m 40.23,5.78 c -0.11,0.48 4.28,3.07 3.42,7.83 l 0,0.78 c -3.99,0.78 -7.27,1.43 -9.84,1.96 l -2.99,0.39 c -0.0041,0.26 0.14,0.78 0.42,1.56 0.289018,0.26 0.86,0.78 1.72,1.57 2.939094,1.153569 6.132,2.34 9.41,2.34 l 1.282717,0.0029 0,3.129435 C 41.655831,25.863976 42.57,25.32 36.81,27.3 c -5.732909,1.962034 -21.240882,4.545529 -31.6677393,7.430686 -0.3200866,0.412893 0,0.782333 0,0.782333 l 6.8463043,5.476536 c 1.956607,-0.06838 2.068025,-0.162882 3.423152,-0.782334 1.141028,-0.782343 3.137863,-1.564686 5.990515,-2.347101 l 22.250485,-7.041293 0,3.911859 C 38.627282,36.974502 33.052397,37.496403 27.82064,39.03 l -2.139469,0.394806 0,0.782415 C 30.711452,44.67402 36.783623,43.123626 42.796929,41.77 l 0,0.784313 c -2.591729,2.671524 -5.447837,4.073697 -8.985773,5.085297 -1.541124,0.470565 -3.362871,0.193014 -4.706833,0.391167 -3.085522,0.455013 0.841089,3.649859 2.567363,5.085368 l 1.711576,1.173582 C 34.436445,54.719891 38.489692,53.4 41.09,52.72 l 1.706929,-0.777374 C 39.783111,58.980347 28.880521,60.29 21.83,60.94 c -1.99283,0.11392 -3.137787,0.260584 -3.423027,0.782116 L 17.98,62.11 l 0,0.79 c 2.48,2.49 7.89,4.56 10.27,3.52 l 5.13,-1.959616 c -1.71,2.347101 -2.70677,4.303025 -2.99,5.867702 -0.51,6.383592 5.329546,19.551014 6.42,19.951914 0.98,0.358376 11.250194,-2.844877 17.11,-3.13 2.07,2.276616 4.433326,7.756356 5.14,7.82 2.78,0.262679 3.920797,-1.375115 5.55952,-2.74 C 69.33,87.600165 70.5602,81.096028 74.033189,75.8 75.03,74.23846 75.917823,72.895957 76.172661,71.110429 75.85,66.109742 71.593793,62.323568 66.331095,61.72 56,60.721532 45.03278,64.020104 36.378519,69.154576 L 35.094838,69.94 34.24,69.936919 C 35.094797,67.329089 35.665321,65.76434 35.95,65.24 l 0.86,-1.561959 C 47.71431,60.554708 53.616781,57.72 70.18,57.42 l 5.99,0 0.86,-0.783253 C 76.785013,53.865296 74.221079,52.111241 71.465824,51.55 L 50.14,53.733815 c 0.929488,-2.165166 1.785276,-3.095135 2.07,-3.353815 0.57,-0.784465 1.56948,-1.306006 2.995853,-1.566808 4.204147,-1.559025 8.846123,-1.84059 13.26471,-2.738268 L 69.33,45.683757 C 69.108541,43.666965 68.43005,42.642864 66.33,42.16 63.68,41.501574 60.884325,41.788944 58.201112,42.1631 L 55.63,42.55 c 2.78,-2.827258 6.333129,-4.81102 9.845308,-6.65 -0.0053,0.0042 0.807928,-0.72673 0.27306,-1.8 C 65.21,33.021793 64.641758,32.703922 63.335838,31.6 63.91,30.558097 64.476819,29.775754 65.047414,29.25 72.25,24.579001 80.91311,24.662485 91.576846,27.3 93.32,27.907705 93.907037,27.90622 95,26.91 93.23,19.684198 82.224003,19.869031 76.172661,21.82 75.14,21.987019 74.236452,22.212928 73.177396,22.21 L 71.89,22.21 C 72.8,20.833597 72.838062,19.717678 72.321609,18.3 68.22,12.792764 61.177375,11.568512 54.350066,12.433367 L 53.07,12.82 C 52.84235,11.341784 54.613306,9.46 53.92,8.91 50.34,6.07 42.01,4.96 41.51,5 41,5.04 40.34,5.31 40.23,5.78 Z m 11.98,14.09 c 1.997374,-1.829651 3.14,-2.74 3.42,-2.74 2.204178,-1.34731 4.49,-1.52 6.42,0 l 0.43005,0.3887 C 62.46,19.18 61.88,20.75 61.2,22.21 l -0.43,0.7852 C 57.345259,23.26 54.92,23.65 53.49,24.17 l -2.14,0.39 0.85,-4.69 0.01,0 z m 5.99,7.82 c -1.12,2.2 -2.78,3.09 -5.39,4.3 l -1.46,0.39 0,-3.13 6.85,-1.56 z m 6.85,39.12 c 4.35,3.54 -1.53,12.85 -5.14,17.99 -1.07,2.49 -2.59,0.75 -4.28,-0.39 -2.34,-1.42 -4.82,-1.12 -7.7,-0.39 3.23,-4.3 2.65,-5.8 7.55,-6.25 4.78,-0.44 2.14,-2.48 1.15,-3.06 -0.96,-0.56 -16.41,0.72 -17.26,1.09 -2.86,1.99 3.59,3.36 5.14,3.52 l 0.85,0.79 -5.99,4.69 -0.85,0 c -2.46,-2.2 -2.24,-6.23 -2.57,-9.39 -0.18,-2.27 2.35,-3.11 4.28,-3.91 1.25,-0.57 2.64,-1.06 4.28,-1.56 4.79,-0.69 19.12,-4.29 20.54,-3.13 z"
           inkscape:connector-curvature="0" />
      </a>
      <path
         id="F"
         d="m 14.901353,28.389776 3.873524,0 -2.144949,-5.841828 -2.22065,5.539012 c -6e-6,0.126182 0.02523,0.210297 0.0757,0.252347 0.05888,0.03365 0.197665,0.05048 0.416372,0.05047 m -2.712727,5.400221 c -0.09253,0.252349 -0.143001,0.466844 -0.151409,0.643485 -3e-6,0.176643 0.105135,0.311229 0.315434,0.403754 0.210284,0.09253 0.559364,0.138792 1.047239,0.138791 0.210284,10e-7 0.353281,0.02103 0.428989,0.06308 0.0757,0.03365 0.113553,0.100938 0.113553,0.201878 l 0,0.517311 -0.126173,0.100938 c -1.581371,-0.03365 -2.578139,-0.05047 -2.990302,-0.05047 l -2.2080349,0.05047 -0.2018774,-0.0757 0,-0.542546 c -10e-8,-0.08412 0.025234,-0.147201 0.075704,-0.189261 0.050469,-0.04206 0.1009382,-0.06308 0.151408,-0.06308 0.058881,-0.0084 0.1556135,-0.01262 0.2901988,-0.01262 0.2944038,2e-6 0.6056312,-0.126171 0.9336832,-0.378519 0.3280493,-0.252345 0.5930133,-0.622453 0.7948933,-1.110326 l 5.766127,-13.853846 c 0.109344,-0.277566 0.269161,-0.479443 0.479459,-0.605633 0.218691,-0.134568 0.420569,-0.201861 0.605631,-0.201878 0.571977,1.7e-5 0.958909,0.269187 1.160795,0.807511 l 5.22358,13.853838 c 0.201861,0.513107 0.403739,0.891627 0.605632,1.13556 0.201861,0.235525 0.454208,0.353286 0.75704,0.353286 l 0.731806,0 c 0.176626,0 0.281769,0.01682 0.315433,0.05047 0.04204,0.03365 0.06307,0.105147 0.06308,0.214496 l 0,0.517311 -0.126174,0.100938 c -1.648681,-0.03365 -2.801064,-0.05047 -3.457151,-0.05047 l -3.722115,0.05047 -0.214495,-0.126173 0,-0.492076 c -10e-6,-0.176642 0.227101,-0.264964 0.681336,-0.264965 l 0.693954,0 c 0.428978,10e-7 0.643472,-0.222904 0.643485,-0.668718 -1.3e-5,-0.185054 -0.01684,-0.30702 -0.05047,-0.365903 l -1.602403,-4.340366 -4.756737,0 c -0.269176,6e-6 -0.450024,0.02103 -0.542546,0.06308 -0.09253,0.03365 -0.176648,0.134591 -0.252346,0.302817 l -1.476229,3.823053"
         inkscape:connector-curvature="0"
         style="fill:#555753" />
      <g
         style="color:#000000;font-style:normal;font-variant:normal;font-weight:normal;font-stretch:normal;font-size:0.47938409px;line-height:125%;font-family:'Noto Sans Thai';-inkscape-font-specification:'Noto Sans Thai';text-indent:0;text-align:end;text-decoration:none;text-decoration-line:none;letter-spacing:0px;word-spacing:0px;text-transform:none;direction:ltr;block-progression:tb;writing-mode:lr-tb;baseline-shift:baseline;text-anchor:end;display:inline;overflow:visible;visibility:visible;fill:#555753;fill-opacity:1;fill-rule:nonzero;stroke:none;stroke-width:1px;stroke-linecap:butt;stroke-linejoin:miter;stroke-opacity:1;marker:none;enable-background:accumulate"
         id="text4186">
        <path
           d="m 16.451166,7.5563407 q 0.771509,0 1.39321,0.082394 0.621701,0.082394 1.183479,0.2996151 0.569269,0.2097305 0.951278,0.5542878 0.382009,0.3445573 0.59923,0.8913548 0.224712,0.5467975 0.224712,1.2658735 l 0,6.082186 -2.329508,0 0,-5.96234 q 0,-0.681624 -0.464403,-1.0411622 -0.456913,-0.3670284 -1.528037,-0.3670284 -1.355758,0 -2.089815,0.3445573 l 1.430662,0.6816243 0,1.468114 q -0.389499,0.149807 -0.644172,0.329576 -0.254673,0.179769 -0.374519,0.38201 -0.119846,0.194749 -0.164788,0.367028 -0.03745,0.172279 -0.03745,0.382009 l 0,3.415612 -2.329507,0 0,-3.415612 q 0,-0.614211 0.307105,-1.19846 0.314596,-0.59174 0.846413,-0.891355 l -1.38572,-0.576759 0,-2.0673438 q 2.464334,-1.0261815 4.411832,-1.0261815 z"
           style="font-style:normal;font-variant:normal;font-weight:bold;font-stretch:normal;font-size:15.34029102px;font-family:Waree;-inkscape-font-specification:'Waree Bold';fill:#555753;fill-opacity:1"
           id="path4156" />
      </g>
      <g
         style="color:#000000;font-style:normal;font-variant:normal;font-weight:normal;font-stretch:normal;font-size:0.62536269px;line-height:125%;font-family:'Noto Sans Thai';-inkscape-font-specification:'Noto Sans Thai';text-indent:0;text-align:end;text-decoration:none;text-decoration-line:none;letter-spacing:0px;word-spacing:0px;text-transform:none;direction:ltr;block-progression:tb;writing-mode:lr-tb;baseline-shift:baseline;text-anchor:end;display:inline;overflow:visible;visibility:visible;fill:#555753;fill-opacity:1;fill-rule:nonzero;stroke:none;stroke-width:1px;stroke-linecap:butt;stroke-linejoin:miter;stroke-opacity:1;marker:none;enable-background:accumulate"
         id="text4214">
        <path
           d="m 38.35376,31.590904 q 0,0.610705 -0.232068,1.148126 -0.232068,0.537421 -0.635134,0.940487 -0.403066,0.403066 -0.940487,0.635134 -0.525207,0.232068 -1.123698,0.232068 -0.122142,0 -0.390852,-0.02443 -0.268711,-0.02443 -0.476351,-0.134355 l 0.451923,-1.0382 q 0.09771,0.02443 0.195425,0.04886 0.09771,0.02443 0.219855,0.02443 0.378637,0 0.708418,-0.14657 0.329781,-0.146569 0.574063,-0.390851 0.244283,-0.256497 0.378638,-0.586278 0.146569,-0.329781 0.146569,-0.708418 0,-0.366424 -0.146569,-0.696205 -0.134355,-0.341995 -0.378638,-0.586277 -0.244282,-0.244283 -0.574063,-0.390852 -0.329781,-0.146569 -0.708418,-0.146569 -0.366424,0 -0.708419,0.195425 -0.329781,0.195426 -0.586278,0.500779 -0.256496,0.305353 -0.403065,0.671776 -0.14657,0.366424 -0.14657,0.696205 0,0.916058 -0.256496,1.563406 -0.256496,0.635134 -0.867202,1.148127 l -0.659562,-0.928273 q 0.170997,-0.195425 0.293138,-0.366423 0.122142,-0.183212 0.195426,-0.390852 0.0855,-0.219854 0.122141,-0.464136 0.03664,-0.256496 0.03664,-0.598492 0,-0.403065 -0.134356,-0.757275 -0.122141,-0.366423 -0.366423,-0.647348 -0.232068,-0.280924 -0.574063,-0.439708 -0.329781,-0.170997 -0.745061,-0.170997 -0.41528,0 -0.757275,0.170997 -0.329781,0.158784 -0.574064,0.439708 -0.232068,0.280925 -0.366423,0.647348 -0.122141,0.35421 -0.122141,0.757275 0,0.341996 0.03664,0.598492 0.03664,0.244282 0.122141,0.464136 0.0855,0.20764 0.195426,0.390852 0.122141,0.170998 0.293139,0.366423 l -0.647348,0.928273 q -0.62292,-0.512993 -0.879416,-1.172555 -0.256497,-0.659562 -0.256497,-1.575621 0,-0.659562 0.219854,-1.233625 0.232068,-0.574063 0.635134,-1.001557 0.403066,-0.427494 0.940487,-0.671777 0.537421,-0.244282 1.160341,-0.244282 0.781703,0 1.416837,0.378638 0.635134,0.378637 1.013771,1.013771 0.366424,-0.586277 0.97713,-0.989343 0.610705,-0.41528 1.392409,-0.41528 0.598491,0 1.123698,0.244282 0.537421,0.232068 0.940487,0.635134 0.403066,0.403066 0.635134,0.940487 0.232068,0.537421 0.232068,1.135913 z"
           style="font-style:normal;font-variant:normal;font-weight:bold;font-stretch:normal;font-size:12.50725269px;font-family:'Noto Sans Thai';-inkscape-font-specification:'Noto Sans Thai Bold';fill:#555753;fill-opacity:1"
           id="path4159" />
      </g>
    </g>
  </g>
</svg>
