<?xml version="1.0" encoding="UTF-8" standalone="no"?>
<!-- Created with Inkscape (http://www.inkscape.org/) -->
<svg xmlns:dc="http://purl.org/dc/elements/1.1/" xmlns:cc="http://creativecommons.org/ns#" xmlns:rdf="http://www.w3.org/1999/02/22-rdf-syntax-ns#" xmlns:svg="http://www.w3.org/2000/svg" xmlns="http://www.w3.org/2000/svg" xmlns:sodipodi="http://sodipodi.sourceforge.net/DTD/sodipodi-0.dtd" xmlns:inkscape="http://www.inkscape.org/namespaces/inkscape" width="68.842194" height="85.811935" id="svg2" sodipodi:version="0.32" inkscape:version="0.47 r22583" version="1.0" sodipodi:docname="hay stack.svg" inkscape:output_extension="org.inkscape.output.svg.inkscape">
  <defs id="defs4">
    <inkscape:perspective sodipodi:type="inkscape:persp3d" inkscape:vp_x="0 : 526.18109 : 1" inkscape:vp_y="0 : 1000 : 0" inkscape:vp_z="744.09448 : 526.18109 : 1" inkscape:persp3d-origin="372.04724 : 350.78739 : 1" id="perspective10"/>
    <inkscape:perspective id="perspective5539" inkscape:persp3d-origin="372.04724 : 350.78739 : 1" inkscape:vp_z="744.09448 : 526.18109 : 1" inkscape:vp_y="0 : 1000 : 0" inkscape:vp_x="0 : 526.18109 : 1" sodipodi:type="inkscape:persp3d"/>
    <inkscape:perspective id="perspective5606" inkscape:persp3d-origin="372.04724 : 350.78739 : 1" inkscape:vp_z="744.09448 : 526.18109 : 1" inkscape:vp_y="0 : 1000 : 0" inkscape:vp_x="0 : 526.18109 : 1" sodipodi:type="inkscape:persp3d"/>
    <inkscape:perspective id="perspective5673" inkscape:persp3d-origin="372.04724 : 350.78739 : 1" inkscape:vp_z="744.09448 : 526.18109 : 1" inkscape:vp_y="0 : 1000 : 0" inkscape:vp_x="0 : 526.18109 : 1" sodipodi:type="inkscape:persp3d"/>
  </defs>
  <sodipodi:namedview id="base" pagecolor="#ffffff" bordercolor="#666666" borderopacity="1.0" gridtolerance="10000" guidetolerance="10" objecttolerance="10" inkscape:pageopacity="0.0" inkscape:pageshadow="2" inkscape:zoom="1.5256998" inkscape:cx="-88.826422" inkscape:cy="10.64338" inkscape:document-units="px" inkscape:current-layer="layer1" showgrid="false" width="800px" inkscape:window-width="1366" inkscape:window-height="706" inkscape:window-x="-8" inkscape:window-y="-8" showguides="false" inkscape:guide-bbox="true" inkscape:window-maximized="1">
    <inkscape:grid type="xygrid" id="grid2383" visible="true" enabled="true" empspacing="5" snapvisiblegridlinesonly="true"/>
    <sodipodi:guide orientation="1,0" position="-696.04092,391.52841" id="guide2469"/>
    <sodipodi:guide orientation="1,0" position="103.95908,-141.79191" id="guide2471"/>
    <sodipodi:guide orientation="0,1" position="104.54111,-141.55754" id="guide2473"/>
    <sodipodi:guide orientation="1,0" position="-296.04092,135.77841" id="guide2547"/>
    <sodipodi:guide orientation="0,1" position="-696.48233,391.77059" id="guide3732"/>
    <sodipodi:guide orientation="0,1" position="-935.48623,125.11434" id="guide3734"/>
  </sodipodi:namedview>
  <metadata id="metadata7">
    <rdf:RDF>
      <cc:Work rdf:about="">
        <dc:format>image/svg+xml</dc:format>
        <dc:type rdf:resource="http://purl.org/dc/dcmitype/StillImage"/>
        <dc:title/>
      </cc:Work>
    </rdf:RDF>
  </metadata>
  <g inkscape:label="Layer 1" inkscape:groupmode="layer" id="layer1" transform="translate(-696.041, -305.961)">
    <path sodipodi:nodetypes="cccccccccccccccccccccccccccccccccccccccccccccccccc" id="path5355" d="m 725.8146,307.16966 -1.09574,12.80873 c -2.2992,-4.85108 -5.25808,-6.58952 -8.04796,-9.18148 0.9579,3.91042 1.51173,7.0771 1.43579,11.10846 -3.90706,-4.11552 -7.23689,-5.05762 -10.84397,-6.49883 1.7326,2.37236 4.65404,4.51895 5.47866,8.69029 -4.26938,-1.23231 -9.30142,-1.2629 -12.92208,0.7179 3.89556,0.82091 7.86248,1.51044 9.86159,4.83633 -5.08344,1.25303 -9.70713,3.42133 -12.43089,9.67267 5.69719,-2.75096 8.46027,-4.36653 12.20418,-3.13606 -3.27413,1.99497 -6.66611,6.58067 -6.72552,14.01781 3.33813,-6.0585 6.15352,-9.98021 10.7684,-9.89937 -3.50569,7.15436 -2.27637,11.70049 -2.07812,15.49138 1.0297,-3.81882 2.68976,-6.73861 4.64742,-9.06812 l 0.26449,0.75567 2.5693,0.90682 4.08066,11.37294 -0.41563,1.02016 -5.47866,26.07087 1.92133,1.66446 2.49939,-1.85338 1.28041,3.1434 3.40929,-2.636 2.60286,3.38912 2.84056,-3.68913 2.36233,3.39336 2.13916,-3.16779 2.4986,2.2146 0.87744,-2.60596 3.46933,0.7152 -4.74173,-26.67653 0.41562,-0.60454 2.75822,-11.78857 2.49374,-1.1713 0.26448,-1.1713 c 2.23508,2.44507 4.18587,5.55201 5.32753,9.78602 0.19823,-3.79089 1.42755,-8.33698 -2.07811,-15.49138 4.61486,-0.0809 7.39245,3.84089 10.73061,9.89937 -0.0594,-7.43717 -3.41359,-12.02285 -6.68774,-14.01781 3.74388,-1.23046 6.50697,0.38509 12.20419,3.13606 -2.72377,-6.25133 -7.38528,-8.41967 -12.46868,-9.67267 1.99912,-3.32585 6.00381,-4.01543 9.89937,-4.83633 -3.62068,-1.98079 -8.69049,-1.95021 -12.95986,-0.7179 0.82462,-4.17134 3.78384,-6.3179 5.51644,-8.69029 -3.60709,1.44117 -6.97471,2.3833 -10.88175,6.49883 -0.0759,-4.03135 0.51565,-7.19806 1.47357,-11.10846 -2.78986,2.59199 -5.74878,4.33042 -8.04796,9.18148 l -1.09573,-12.80873 c -2.43061,3.88551 -4.16655,7.88344 -4.64742,12.09084 -0.48088,-4.20743 -2.21683,-8.2053 -4.64741,-12.09084 z" style="fill: rgb(245, 220, 15); fill-opacity: 1; fill-rule: evenodd; stroke: rgb(0, 0, 0); stroke-width: 2.41817; stroke-linecap: round; stroke-linejoin: round; stroke-miterlimit: 4; stroke-opacity: 1; stroke-dasharray: none;"/>
    <path style="fill: rgb(0, 0, 0); fill-opacity: 1; fill-rule: nonzero; stroke: rgb(0, 0, 0); stroke-width: 2.41817; stroke-linecap: round; stroke-linejoin: round; stroke-miterlimit: 4; stroke-opacity: 1; stroke-dashoffset: 0pt;" d="m 740.10092,356.81251 c -7.11856,0.61731 -11.14785,1.18994 -19.39594,0 -1.0444,2.74198 -0.53904,3.6656 0.25976,6.4076 7.50439,1.45209 10.93908,1.24908 18.44346,0.17317 1.43268,-2.74198 1.79375,-3.83879 0.69272,-6.58077 z" id="path5357" sodipodi:nodetypes="ccccc"/>
    <path sodipodi:nodetypes="cccc" id="path5359" d="m 724.52953,364.34964 -1.44631,13.90075 3.93721,-13.65969 -2.4909,-0.24106 z" style="fill: rgb(0, 0, 0); fill-opacity: 1; fill-rule: evenodd; stroke: none;"/>
    <path inkscape:transform-center-y="5.0865768" inkscape:transform-center-x="-0.09815265" style="fill: rgb(0, 0, 0); fill-opacity: 1; fill-rule: evenodd; stroke: none;" d="m 727.85819,364.50956 0.64038,13.9611 1.85863,-14.09376 -2.49901,0.13266 z" id="path5361" sodipodi:nodetypes="cccc"/>
    <path sodipodi:nodetypes="cccc" id="path5363" d="m 734.26078,365.01776 2.82185,13.68794 -0.37457,-14.21086 -2.44728,0.52292 z" style="fill: rgb(0, 0, 0); fill-opacity: 1; fill-rule: evenodd; stroke: none;" inkscape:transform-center-x="-0.14411765" inkscape:transform-center-y="4.9667168"/>
    <path sodipodi:nodetypes="cccc" id="path5365" d="m 730.31252,357.36889 -2.29123,-11.38607 -0.16622,11.85332 2.45745,-0.46725 z" style="fill: rgb(0, 0, 0); fill-opacity: 1; fill-rule: evenodd; stroke: none;" inkscape:transform-center-x="0.01559235" inkscape:transform-center-y="-4.1298089"/>
    <path inkscape:transform-center-y="-4.1043939" inkscape:transform-center-x="-0.33136265" style="fill: rgb(0, 0, 0); fill-opacity: 1; fill-rule: evenodd; stroke: none;" d="m 736.36467,357.37215 1.2606,-11.54569 -3.74426,11.24763 2.48366,0.29806 z" id="path5367" sodipodi:nodetypes="cccc"/>
    <path inkscape:transform-center-y="-4.1929939" inkscape:transform-center-x="0.06127235" style="fill: rgb(0, 0, 0); fill-opacity: 1; fill-rule: evenodd; stroke: none;" d="m 734.77157,388.39822 -1.38446,-11.53151 -1.10222,11.80313 2.48668,-0.27162 z" id="path5369" sodipodi:nodetypes="cccc"/>
    <path sodipodi:nodetypes="cccccccccc" id="path5371" d="m 718.59788,342.53536 c -0.32719,0.0318 -0.62732,0.19555 -0.83125,0.4534 l -2.60469,2.97776 1.37169,1.9485 2.02545,0.48063 c 0.5486,1.80578 1.45337,3.36506 2.89976,4.43855 1.06739,-3.35655 3.75749,-7.88561 5.05463,-11.3344 -2.32775,1.46695 -4.36638,3.46947 -5.62322,5.59448 l -1.0455,-3.76546 c -0.18683,-0.51726 -0.69917,-0.8433 -1.24687,-0.79346 z" style="fill: rgb(0, 0, 0); fill-opacity: 1; fill-rule: evenodd; stroke: none;"/>
    <path sodipodi:nodetypes="cccc" id="path5373" d="m 746.17206,346.45436 c -1.77541,-2.45089 -4.07162,-4.06851 -6.19304,-5.96576 1.10797,2.32188 2.77387,4.25321 3.21014,7.04528 l 2.9829,-1.07952 z" style="fill: rgb(0, 0, 0); fill-opacity: 1; fill-rule: evenodd; stroke: none;"/>
  </g>
</svg>